<svg width="31" height="31" viewBox="0 0 31 31" fill="none" xmlns="http://www.w3.org/2000/svg">
<path d="M24.027 16.5385L20.6748 12.2711C21.8651 11.0508 22.5839 9.44766 22.7034 7.74708H27.8941V8.31517C26.6925 8.56209 25.8297 9.61905 25.8283 10.8457C25.8287 12.2718 26.985 13.4277 28.4111 13.4274C29.8371 13.4272 30.993 12.2708 30.9927 10.8447C30.9925 9.61782 30.1291 8.56054 28.927 8.31517V7.23064C28.927 6.94544 28.6957 6.7142 28.4105 6.7142H22.7034C22.6024 5.28334 22.0754 3.91541 21.1902 2.78667L21.9106 2.06623H27.9891C28.2743 2.87298 29.1596 3.29575 29.9663 3.01048C30.773 2.72528 31.1958 1.84003 30.9105 1.03335C30.6252 0.226671 29.7401 -0.196165 28.9334 0.0890394C28.4922 0.245005 28.1452 0.592117 27.9892 1.03329H21.6969C21.5599 1.03329 21.4286 1.08777 21.3318 1.1846L20.4977 2.01866C17.6277 -0.745335 13.0604 -0.659413 10.2964 2.21058C9.12161 3.43041 8.41337 5.02466 8.29576 6.71413H3.95765L2.26934 2.91681C3.02406 2.5196 3.31391 1.58588 2.91677 0.831165C2.51963 0.0764512 1.58584 -0.213337 0.831122 0.183806C0.0764732 0.580949 -0.213379 1.51467 0.183764 2.26939C0.39247 2.66601 0.763275 2.95245 1.1998 3.05412L3.14936 7.44077C3.23238 7.62714 3.41739 7.74715 3.62139 7.74702H8.29569C8.4146 9.42803 9.11954 11.014 10.2876 12.2287L5.92781 16.5885C3.10875 16.1661 0.48104 18.1089 0.058656 20.928C-0.363728 23.7471 1.57912 26.3748 4.39818 26.7972C4.48326 26.8099 4.56867 26.8205 4.65427 26.829V29.4375C4.65427 29.7227 4.88551 29.954 5.17071 29.954H9.9137C10.1989 30.7607 11.0841 31.1835 11.8908 30.8982C12.6975 30.6129 13.1203 29.7278 12.8351 28.9211C12.5498 28.1144 11.6646 27.6916 10.8579 27.9768C10.4167 28.1328 10.0697 28.4799 9.9137 28.9211H5.68715V26.829C8.52357 26.5462 10.5938 24.0176 10.311 21.1811C10.1197 19.2618 8.87404 17.6092 7.08154 16.8968L11.0581 12.9202C13.6478 14.9592 17.293 14.9739 19.8991 12.9558L22.7643 16.6029C18.808 17.1548 16.0482 20.8094 16.6001 24.7655C17.152 28.7218 20.8065 31.4816 24.7627 30.9297C28.719 30.3778 31.4788 26.7233 30.9269 22.7671C30.4422 19.2921 27.5333 16.6662 24.027 16.5385ZM29.9599 10.8457C29.9599 11.7014 29.2662 12.395 28.4105 12.395C27.5549 12.395 26.8612 11.7014 26.8612 10.8457C26.8612 9.99005 27.5549 9.2964 28.4105 9.2964C29.2662 9.2964 29.9599 9.99005 29.9599 10.8457ZM29.4434 1.03335C29.7286 1.03335 29.9599 1.26459 29.9599 1.54979C29.9599 1.835 29.7286 2.06623 29.4434 2.06623C29.1582 2.06623 28.927 1.835 28.927 1.54979C28.927 1.26459 29.1582 1.03335 29.4434 1.03335ZM1.55562 2.06623C1.27042 2.06623 1.03918 1.835 1.03918 1.54979C1.03918 1.26459 1.27042 1.03335 1.55562 1.03335C1.84083 1.03335 2.07206 1.26459 2.07206 1.54979C2.07206 1.835 1.84083 2.06623 1.55562 2.06623ZM11.368 28.9212C11.6532 28.9212 11.8844 29.1524 11.8844 29.4376C11.8844 29.7228 11.6532 29.954 11.368 29.954C11.0828 29.954 10.8516 29.7228 10.8516 29.4376C10.8516 29.1524 11.0828 28.9212 11.368 28.9212ZM7.23647 25.2637C5.96015 26.0091 4.38126 26.0091 3.10495 25.2637V24.2732C3.10495 23.1323 4.02983 22.2074 5.17071 22.2074C6.31159 22.2074 7.23647 23.1323 7.23647 24.2732V25.2637ZM4.13783 20.1417C4.13783 19.5712 4.60024 19.1088 5.17071 19.1088C5.74118 19.1088 6.20359 19.5712 6.20359 20.1417C6.20359 20.7121 5.74118 21.1745 5.17071 21.1745C4.60024 21.1745 4.13783 20.7121 4.13783 20.1417ZM8.26935 18.9492C8.93698 19.7062 9.30443 20.6815 9.30223 21.691C9.30204 22.6946 8.93466 23.6633 8.26935 24.4147V24.2732C8.26871 23.1441 7.65395 22.1047 6.66477 21.5603C7.45254 20.7351 7.42207 19.4274 6.5968 18.6397C5.77152 17.852 4.4639 17.8824 3.67613 18.7076C2.91419 19.5059 2.91419 20.762 3.67613 21.5603C2.68715 22.1048 2.07265 23.1441 2.07206 24.2731V24.4146C0.562831 22.7033 0.726672 20.0925 2.43796 18.5832C4.14932 17.074 6.76012 17.2378 8.26935 18.9492ZM19.1146 12.2525C16.9587 13.8177 14.0404 13.8177 11.8844 12.2525V11.0007C11.8844 10.0594 12.6475 9.2964 13.5887 9.2964H14.7352L13.9858 11.1701C13.9091 11.362 13.9542 11.5813 14.1005 11.7273L15.1334 12.7602C15.335 12.9618 15.6619 12.9618 15.8636 12.7602L16.8965 11.7273C17.0428 11.5812 17.0879 11.362 17.0111 11.1701L16.2623 9.2964H17.4104C18.3516 9.2964 19.1146 10.0594 19.1146 11.0007V12.2525ZM15.5734 3.86603C15.5541 3.89831 15.5383 3.93252 15.5264 3.96822C15.2651 4.75166 13.8543 5.04861 12.9459 5.13486C13.0844 3.40414 13.8988 2.58261 15.4996 2.58261C16.9652 2.58261 17.7719 3.27567 18.0028 4.72171L16.282 3.68882C16.0373 3.54216 15.7201 3.62149 15.5734 3.86603ZM16.2117 4.85191L18.0575 5.95968C17.8504 7.22393 16.2923 8.26352 15.4995 8.26352C14.3477 8.06734 13.3895 7.2686 12.9891 6.1709C13.8733 6.09809 15.4696 5.83005 16.2117 4.85191ZM15.9261 11.2377L15.4995 11.6648L15.0729 11.2377L15.4995 10.1702L15.9261 11.2377ZM17.7528 8.28728C18.5584 7.65328 19.0541 6.70471 19.1146 5.68132C19.1146 2.26661 17.1485 1.54979 15.4995 1.54979C13.8505 1.54979 11.8844 2.26661 11.8844 5.68132C11.9445 6.70529 12.4403 7.65451 13.2463 8.28883C11.8773 8.45751 10.8496 9.62131 10.8516 11.0007V11.3147C8.58768 8.74768 8.83337 4.83145 11.4004 2.56757C13.9674 0.303685 17.8836 0.549382 20.1475 3.11635C22.2133 5.45873 22.2133 8.97221 20.1475 11.3146V11.0006C20.1503 9.62073 19.1223 8.45596 17.7528 8.28728ZM27.3777 28.7786C25.2217 30.3438 22.3034 30.3438 20.1475 28.7786V27.5268C20.1475 26.5855 20.9105 25.8225 21.8517 25.8225H22.9982L22.2489 27.6962C22.1721 27.8881 22.2173 28.1073 22.3635 28.2534L23.3964 29.2863C23.5981 29.4879 23.925 29.4879 24.1267 29.2863L25.1595 28.2534C25.3058 28.1073 25.351 27.8881 25.2742 27.6962L24.5254 25.8225H25.6734C26.6146 25.8225 27.3777 26.5855 27.3777 27.5268V28.7786ZM24.4747 21.378L26.3205 22.4853C26.1134 23.75 24.5553 24.7896 23.7626 24.7896C22.6107 24.5934 21.6525 23.7947 21.2522 22.697C22.1363 22.6242 23.7326 22.3561 24.4747 21.378ZM21.2088 21.661C21.3472 19.9304 22.1616 19.1088 23.7626 19.1088C25.2282 19.1088 26.0349 19.8018 26.2658 21.2479L24.545 20.215C24.3004 20.0683 23.9832 20.1476 23.8364 20.3922C23.8171 20.4245 23.8013 20.4587 23.7894 20.4944C23.5281 21.2778 22.1172 21.5748 21.2088 21.661ZM24.1892 27.7638L23.7626 28.1909L23.336 27.7638L23.7626 26.6963L24.1892 27.7638ZM28.4105 27.8422V27.5267C28.4133 26.1468 27.3853 24.9821 26.0158 24.8133C26.8215 24.1793 27.3172 23.2308 27.3777 22.2074C27.3777 18.7927 25.4116 18.0758 23.7626 18.0758C22.1136 18.0758 20.1475 18.7927 20.1475 22.2074C20.2075 23.2313 20.7033 24.1805 21.5093 24.8149C20.1404 24.9836 19.1126 26.1474 19.1146 27.5267V27.8407C16.856 25.2717 17.1077 21.3581 19.6766 19.0995C22.2456 16.841 26.1592 17.0926 28.4178 19.6616C29.413 20.7935 29.9612 22.2494 29.9599 23.7566C29.9595 25.262 29.4085 26.7152 28.4105 27.8422Z" fill="#FAFCFF"/>
</svg>
