<svg width="35" height="28" viewBox="0 0 35 28" xmlns="http://www.w3.org/2000/svg">
<path d="M29.5066 15.8863C29.3804 15.8526 29.2551 15.8191 29.1323 15.7857C28.9465 15.7347 28.809 15.4964 28.7052 15.2558C30.6144 13.967 32.0384 11.7469 32.0384 9.81154V8.05213C32.0384 5.88285 31.3454 4.04197 30.0343 2.72844C28.8626 1.5546 27.2854 0.892535 25.5932 0.86441C25.5853 0.86441 25.5775 0.86441 25.5698 0.86441C23.0536 0.906129 20.2899 2.45122 19.4108 5.78525C18.7904 5.57947 18.1338 5.46547 17.4581 5.45422C17.4503 5.45413 17.4426 5.45413 17.4347 5.45422C16.7588 5.46547 16.102 5.57957 15.4814 5.78544C14.6003 2.45122 11.836 0.906035 9.32034 0.86441C9.31266 0.86441 9.30488 0.86441 9.297 0.86441C7.60491 0.892535 6.02822 1.5546 4.85709 2.72863C3.54703 4.04188 2.85459 5.88275 2.85459 8.05213V9.81154C2.85459 11.7465 4.27734 13.967 6.18581 15.2562C6.08241 15.4964 5.94516 15.7344 5.75906 15.7853C5.63466 15.8192 5.50894 15.8528 5.38256 15.8866C3.35325 16.429 0.574219 17.1716 0.574219 20.6787V22.1962C0.574219 22.8389 1.09706 23.3618 1.74047 23.3618L7.12753 23.3564C7.51584 23.3561 7.83028 23.041 7.82991 22.6527C7.82953 22.2645 7.51491 21.9502 7.12678 21.9502C7.12659 21.9502 7.12631 21.9502 7.12603 21.9502L1.98038 21.9553V20.6787C1.98038 18.7145 3.05109 18.0454 4.86459 17.4937L8.16141 19.4252C8.985 19.9551 9.63169 19.9553 10.4584 19.4253L12.5397 18.2038C13.0481 18.8302 13.6556 19.3945 14.3228 19.8451C14.2191 20.0859 14.0817 20.3241 13.8969 20.3749C13.7728 20.4088 13.6474 20.4422 13.5212 20.476C11.4905 21.018 8.70928 21.7605 8.70928 25.2684V26.7859C8.70928 27.4286 9.23334 27.9515 9.8775 27.9515H15.7801C16.1685 27.9515 16.4832 27.6367 16.4832 27.2484C16.4832 26.8601 16.1685 26.5453 15.7801 26.5453H10.1155V25.2685C10.1155 23.3041 11.1875 22.635 13.0021 22.0835L16.2963 24.0149C16.709 24.2805 17.077 24.4133 17.4451 24.4133C17.8132 24.4133 18.1812 24.2804 18.5938 24.0149L21.8898 22.084C23.7034 22.6354 24.7747 23.3047 24.7747 25.2685V26.5453H19.1553C18.7669 26.5453 18.4522 26.8601 18.4522 27.2484C18.4522 27.6367 18.7669 27.9515 19.1553 27.9515H25.0154C25.6581 27.9515 26.181 27.4287 26.181 26.7859V25.2684C26.181 21.7605 23.3998 21.0181 21.3691 20.476C21.2429 20.4423 21.1175 20.4088 20.9947 20.3753C20.8095 20.3245 20.6725 20.086 20.5693 19.8453C21.2363 19.3948 21.8438 18.8307 22.3522 18.2044L24.4342 19.425C24.8468 19.6906 25.2149 19.8234 25.5829 19.8234C25.9509 19.8234 26.3189 19.6906 26.7315 19.4252L30.0293 17.4946C31.8418 18.046 32.9125 18.7154 32.9125 20.6786V21.9554H27.7689C27.3805 21.9554 27.0658 22.2703 27.0658 22.6586C27.0658 23.0469 27.3805 23.3617 27.7689 23.3617H33.1506C33.7947 23.3617 34.3188 22.8389 34.3188 22.1961V20.6786C34.3186 17.1708 31.5373 16.4283 29.5066 15.8863ZM30.6322 9.81154C30.6322 11.6468 28.8309 13.9243 26.7781 14.6853C25.8948 15.012 25.2686 15.0121 24.3868 14.686C24.2246 14.6255 24.0615 14.5533 23.8988 14.4724C23.8991 14.4488 23.9007 14.4249 23.9007 14.4013V12.6418C23.9007 10.6794 23.3318 8.98701 22.2528 7.7091C22.312 7.65097 22.3672 7.59472 22.4191 7.54175C22.7815 7.17191 22.847 7.10525 23.2436 7.20772C23.5328 7.28188 23.7793 7.34732 23.9931 7.40413C24.7312 7.60016 25.1377 7.70816 25.5815 7.70816C26.0277 7.70816 26.4352 7.59997 27.175 7.40347C27.3882 7.34685 27.634 7.2816 27.9232 7.20744C28.3178 7.10572 28.3827 7.17229 28.7454 7.54222C29.1074 7.91141 29.6258 8.43697 30.6321 8.65963V9.81154H30.6322ZM25.5815 2.27075C27.8284 2.31341 30.2293 3.87257 30.5867 7.18419C30.2179 7.03532 29.9945 6.80732 29.7495 6.55766C29.3288 6.12857 28.7523 5.54094 27.5728 5.84563C27.2802 5.92063 27.0307 5.98691 26.8141 6.04447C26.1683 6.21594 25.8442 6.302 25.5815 6.302C25.3212 6.302 24.998 6.21613 24.354 6.04513C24.1369 5.98747 23.8866 5.921 23.5938 5.84591C22.4114 5.54075 21.8353 6.12857 21.4148 6.55757C21.3535 6.62 21.293 6.68038 21.2315 6.73944C21.0638 6.61279 20.8906 6.49466 20.7119 6.38591C21.3419 3.59938 23.5629 2.3091 25.5815 2.27075ZM17.4465 6.86057C19.6922 6.90313 22.0919 8.46238 22.4491 11.774C22.0802 11.6251 21.8567 11.3971 21.6118 11.1475C21.2721 10.801 20.8311 10.3512 20.0527 10.3512C19.8671 10.3512 19.6622 10.3768 19.435 10.4353C19.1417 10.5106 18.8916 10.577 18.6746 10.6347C18.0303 10.8058 17.7068 10.8917 17.4464 10.8917C17.1831 10.8917 16.8583 10.8053 16.211 10.6332C15.9957 10.5759 15.748 10.5101 15.4587 10.4356C14.2763 10.1308 13.7001 10.7187 13.2795 11.148C13.0352 11.3974 12.8121 11.6251 12.4439 11.7739C12.8011 8.46219 15.2008 6.90313 17.4465 6.86057ZM9.30881 2.27075C11.3269 2.309 13.5484 3.59938 14.1806 6.38619C14.0018 6.49513 13.8284 6.61335 13.6606 6.7401C13.5983 6.68047 13.5369 6.61944 13.4751 6.55635C13.0542 6.12791 12.4778 5.54094 11.2972 5.84572C11.0067 5.92035 10.7588 5.98635 10.5434 6.04354C9.89663 6.21557 9.57188 6.30191 9.30872 6.30191C9.04735 6.30191 8.72606 6.2165 8.08603 6.04635C7.86797 5.98832 7.61606 5.92138 7.32103 5.84582C6.13856 5.54085 5.56247 6.12885 5.14191 6.55813C4.89759 6.8075 4.67447 7.03522 4.30631 7.18401C4.66341 3.87247 7.06313 2.31332 9.30881 2.27075ZM4.26075 9.81154V8.66122C5.26781 8.43885 5.78438 7.91169 6.14625 7.54232C6.50897 7.17229 6.5745 7.10563 6.97078 7.20782C7.26216 7.28254 7.51003 7.34844 7.72472 7.40544C8.45906 7.60063 8.8635 7.70816 9.30872 7.70816C9.75572 7.70816 10.1638 7.5996 10.9048 7.40254C11.117 7.3461 11.3611 7.28122 11.6477 7.20754C12.0439 7.10554 12.1089 7.17219 12.4717 7.54157C12.5241 7.59491 12.5797 7.65144 12.6395 7.70994C11.561 8.98775 10.9922 10.6798 10.9922 12.6418V14.4013C10.9922 14.4248 10.9938 14.4486 10.9942 14.4722C10.8309 14.5532 10.6675 14.6252 10.5053 14.6853C9.62175 15.012 8.99559 15.012 8.11284 14.6856C7.88175 14.5998 7.65384 14.4948 7.43128 14.3734C7.40944 14.3596 7.38656 14.3469 7.36294 14.3353C7.36219 14.335 7.36144 14.3347 7.36088 14.3343C5.64047 13.3635 4.26075 11.4179 4.26075 9.81154ZM9.73425 18.2199C9.72553 18.2249 9.71691 18.2303 9.70856 18.2357C9.33188 18.4793 9.28734 18.4795 8.91291 18.2365C8.90391 18.2306 8.89481 18.2249 8.88553 18.2196L6.64313 16.9058C7.02534 16.6467 7.26619 16.2637 7.42528 15.9263C7.49128 15.9535 7.55784 15.9794 7.6245 16.0042C8.82075 16.4468 9.79678 16.4467 10.9934 16.0042C11.0791 15.9725 11.1648 15.9381 11.2505 15.9019C11.3761 16.2839 11.5448 16.6648 11.7503 17.0368L9.73425 18.2199ZM17.8697 22.8093C17.8603 22.8148 17.8513 22.8204 17.8422 22.8263C17.4676 23.0695 17.423 23.0698 17.0478 22.8263C17.0389 22.8205 17.0299 22.8148 17.0206 22.8095L14.7784 21.4949C15.1609 21.2354 15.4025 20.8528 15.5618 20.5149C15.6283 20.5423 15.6949 20.5691 15.762 20.5939C16.3601 20.8152 16.9031 20.9258 17.4462 20.9258C17.9895 20.9258 18.5329 20.8151 19.1315 20.5937C19.198 20.5691 19.264 20.5423 19.33 20.5152C19.489 20.853 19.7302 21.2355 20.1128 21.4951L17.8697 22.8093ZM22.4945 14.4014C22.4945 16.2363 20.6944 18.5139 18.6428 19.275C17.7596 19.6019 17.1333 19.6019 16.2503 19.2752C14.1983 18.5146 12.3983 16.2371 12.3983 14.4014V13.2494C13.4042 13.0268 13.9222 12.5013 14.2838 12.1322C14.6465 11.762 14.7118 11.6954 15.1081 11.7975C15.3937 11.8709 15.6375 11.9358 15.8494 11.9922C16.5908 12.1894 16.9992 12.298 17.4463 12.298C17.8902 12.298 18.297 12.19 19.0355 11.9938C19.249 11.937 19.4953 11.8716 19.7855 11.7973C20.1794 11.6956 20.2449 11.7621 20.6077 12.132C20.9697 12.5012 21.4883 13.0268 22.4944 13.2494V14.4014H22.4945ZM26.0076 18.2195C25.9982 18.225 25.989 18.2307 25.9799 18.2366C25.6052 18.4798 25.5606 18.48 25.1857 18.2366C25.1767 18.2308 25.1677 18.2251 25.1584 18.2198L23.142 17.0376C23.3477 16.6655 23.5165 16.2844 23.6423 15.9023C23.7271 15.9382 23.8121 15.9725 23.8972 16.0043C24.4953 16.2255 25.0382 16.3362 25.5814 16.3362C26.1246 16.3362 26.6679 16.2254 27.2663 16.0041C27.3333 15.9794 27.3997 15.9524 27.466 15.9253C27.6257 16.2635 27.8677 16.6465 28.2512 16.9061L26.0076 18.2195Z" fill="#FFEA00"/>
</svg>
