<svg width="277" height="245" viewBox="0 0 277 245" fill="none" xmlns="http://www.w3.org/2000/svg">
<g>
<path d="M303 215.09H-24V215.253H303V215.09Z" fill="#EBEBEB"/>
<path d="M242.256 219.543H193.998V219.707H242.256V219.543Z" fill="#EBEBEB"/>
<path d="M49.4507 220.642H43.7675V220.806H49.4507V220.642Z" fill="#EBEBEB"/>
<path d="M255.461 225.612H242.91V225.776H255.461V225.612Z" fill="#EBEBEB"/>
<path d="M138.63 223.402H106.8V223.565H138.63V223.402Z" fill="#EBEBEB"/>
<path d="M100.979 223.402H85.0349V223.565H100.979V223.402Z" fill="#EBEBEB"/>
<path d="M31.9889 220.642H10.3088V220.806H31.9889V220.642Z" fill="#EBEBEB"/>
<path d="M130.998 185.921H4.71715C3.72787 185.919 2.77971 185.525 2.0808 184.825C1.38189 184.125 0.989348 183.176 0.989349 182.187V4.67161C0.997961 3.68801 1.3943 2.74753 2.09228 2.05445C2.79026 1.36136 3.73351 0.971656 4.71715 0.969971H130.998C131.988 0.969971 132.938 1.36341 133.639 2.06373C134.339 2.76406 134.732 3.7139 134.732 4.70431V182.187C134.732 183.177 134.339 184.127 133.639 184.827C132.938 185.528 131.988 185.921 130.998 185.921ZM4.71715 1.10077C3.77124 1.1025 2.86466 1.47948 2.19641 2.14895C1.52816 2.81843 1.15285 3.7257 1.15285 4.67161V182.187C1.15285 183.133 1.52816 184.04 2.19641 184.709C2.86466 185.379 3.77124 185.756 4.71715 185.758H130.998C131.945 185.756 132.852 185.379 133.521 184.71C134.19 184.041 134.567 183.133 134.569 182.187V4.67161C134.567 3.7251 134.19 2.81784 133.521 2.14855C132.852 1.47927 131.945 1.1025 130.998 1.10077H4.71715Z" fill="#EBEBEB"/>
<path d="M272.465 185.921H146.177C145.187 185.919 144.239 185.525 143.539 184.826C142.839 184.126 142.445 183.177 142.443 182.187V4.67161C142.453 3.68741 142.851 2.74694 143.55 2.05404C144.249 1.36113 145.193 0.971637 146.177 0.969971H272.465C273.447 0.973374 274.389 1.36384 275.085 2.05674C275.782 2.74964 276.177 3.68914 276.186 4.67161V182.187C276.186 183.175 275.794 184.123 275.097 184.823C274.399 185.523 273.453 185.918 272.465 185.921ZM146.177 1.10077C145.231 1.1025 144.324 1.47927 143.654 2.14855C142.985 2.81784 142.608 3.7251 142.607 4.67161V182.187C142.608 183.133 142.985 184.041 143.654 184.71C144.324 185.379 145.231 185.756 146.177 185.758H272.465C273.411 185.756 274.319 185.379 274.988 184.71C275.657 184.041 276.034 183.133 276.036 182.187V4.67161C276.034 3.7251 275.657 2.81784 274.988 2.14855C274.319 1.47927 273.411 1.1025 272.465 1.10077H146.177Z" fill="#EBEBEB"/>
<path d="M191.002 213.206H89.7895V215.083H191.002V213.206Z" fill="#F0F0F0"/>
<path d="M229.798 137.165C229.798 137.165 238.176 148.937 250.458 138.885C261.863 129.566 250.654 107.016 250.654 107.016C250.654 107.016 263.91 111.182 266.049 93.7006C268.188 76.2192 249.372 80.6598 249.372 80.6598C256.076 67.3313 248.391 66.9258 242.655 68.103C244.395 64.833 244.944 60.8175 240.805 57.4363C231.328 49.6995 224.867 58.7443 224.867 58.7443C224.867 58.7443 219.935 41.7926 208.268 51.6876V146.321C223.408 159.146 229.798 137.165 229.798 137.165Z" fill="#F5F5F5"/>
<path d="M212.637 44.605H19.3798V215.09H212.637V44.605Z" fill="#FAFAFA"/>
<path d="M198.733 18.1179H33.2839L19.3798 44.6049H212.637L198.733 18.1179Z" fill="#F0F0F0"/>
<path d="M183.612 197.588V180.081H172.259V162.58H89.5998V180.081H100.953V197.588H112.313V215.089H194.966V197.588H183.612Z" fill="#F5F5F5"/>
<path d="M89.5998 162.58V180.081H100.953V197.588H112.313V215.089H19.3798V162.58H89.5998Z" fill="#EBEBEB"/>
<path d="M172.259 178.204H89.5998V180.081H172.259V178.204Z" fill="#F0F0F0"/>
<path d="M183.612 195.705H100.953V197.582H183.612V195.705Z" fill="#F0F0F0"/>
<path d="M83.91 60.0457H29.5561V162.58H83.91V60.0457Z" fill="#F0F0F0"/>
<path d="M28.5358 162.58H29.5561L29.5561 60.0457H28.5358L28.5358 162.58Z" fill="#E6E6E6"/>
<path d="M75.7873 114.328C77.4524 114.328 78.8023 112.978 78.8023 111.313C78.8023 109.648 77.4524 108.298 75.7873 108.298C74.1222 108.298 72.7724 109.648 72.7724 111.313C72.7724 112.978 74.1222 114.328 75.7873 114.328Z" fill="#FAFAFA"/>
<path d="M181.788 60.0457H102.778V138.892H181.788V60.0457Z" fill="#F5F5F5"/>
<path d="M178.498 135.191V63.7476L106.081 63.7476V135.191H178.498Z" fill="white"/>
<path d="M106.074 63.7541V135.191H108.206C108.206 135.191 117.977 111.81 120.697 63.7476L106.074 63.7541Z" fill="#FAFAFA"/>
<path d="M178.498 63.7539V135.19H176.359C176.359 135.19 166.595 111.81 163.875 63.7539H178.498Z" fill="#FAFAFA"/>
<path d="M180.427 96.9836H104.145V101.954H180.427V96.9836Z" fill="#F5F5F5"/>
<path d="M144.771 137.61V61.3276H139.801V137.61H144.771Z" fill="#F5F5F5"/>
<path d="M139.5 244.624C209.532 244.624 266.304 241.31 266.304 237.221C266.304 233.132 209.532 229.818 139.5 229.818C69.4681 229.818 12.696 233.132 12.696 237.221C12.696 241.31 69.4681 244.624 139.5 244.624Z" fill="#F5F5F5"/>
<path d="M96.7219 237.221H76.1143C75.3373 237.221 74.592 236.912 74.0426 236.363C73.4931 235.813 73.1844 235.068 73.1844 234.291V198.38H99.6518V234.298C99.65 235.073 99.3406 235.817 98.7913 236.365C98.242 236.913 97.4978 237.221 96.7219 237.221Z" fill="#407BFF"/>
<path opacity="0.2" d="M99.6518 198.38H73.1909V213.965L99.6518 208.229V198.38Z" fill="black"/>
<path d="M111.038 151.266C111.038 141.379 114.965 131.897 121.956 124.906C128.947 117.915 138.429 113.988 148.316 113.988C158.203 113.988 167.684 117.915 174.675 124.906C181.666 131.897 185.594 141.379 185.594 151.266V198.354H111.038V151.266Z" fill="#407BFF"/>
<path opacity="0.3" d="M111.038 151.266C111.038 141.379 114.965 131.897 121.956 124.906C128.947 117.915 138.429 113.988 148.316 113.988C158.203 113.988 167.684 117.915 174.675 124.906C181.666 131.897 185.594 141.379 185.594 151.266V198.354H111.038V151.266Z" fill="black"/>
<path d="M23.2776 151.259V193.736C23.2776 194.347 23.398 194.951 23.6317 195.515C23.8655 196.079 24.2081 196.591 24.64 197.022C25.0719 197.453 25.5845 197.795 26.1486 198.028C26.7127 198.261 27.3173 198.381 27.9276 198.38H111.038V151.259C111.038 141.372 114.965 131.891 121.956 124.9C128.947 117.909 138.429 113.981 148.316 113.981H60.5556C50.6689 113.981 41.1871 117.909 34.1961 124.9C27.2051 131.891 23.2776 141.372 23.2776 151.259Z" fill="#407BFF"/>
<path opacity="0.2" d="M23.2842 184.476H111.044V171.396H23.2842V184.476Z" fill="black"/>
<path opacity="0.2" d="M23.2842 167.334H111.044V154.254H23.2842V167.334Z" fill="black"/>
<path d="M116.538 111.692H105.858V112.346H116.538V111.692Z" fill="#407BFF"/>
<path d="M100.26 111.692H94.5179V112.346H100.26V111.692Z" fill="#407BFF"/>
<path d="M66.1997 163.515V110.541C66.1998 110.33 66.1538 110.121 66.065 109.93C65.9761 109.738 65.8465 109.568 65.6853 109.432C65.524 109.295 65.3349 109.196 65.1312 109.14C64.9275 109.084 64.7141 109.074 64.5058 109.109L46.0172 112.15V119.821H60.1502V163.397C58.723 164.053 57.5604 165.173 56.8525 166.575C56.1447 167.977 55.9333 169.578 56.2531 171.116C56.5729 172.653 57.4048 174.037 58.613 175.041C59.8211 176.044 61.334 176.608 62.9042 176.64C64.4744 176.673 66.0092 176.171 67.2575 175.218C68.5058 174.265 69.3939 172.917 69.7765 171.394C70.1592 169.87 70.0138 168.262 69.364 166.832C68.7143 165.403 67.5988 164.235 66.1997 163.522V163.515Z" fill="#263238"/>
<path d="M116.342 203.71H211.983C212.681 203.712 213.351 203.438 213.848 202.948C214.346 202.458 214.629 201.792 214.638 201.094C214.638 200.39 214.358 199.714 213.86 199.216C213.362 198.718 212.687 198.439 211.983 198.439H111.038C111.047 199.84 111.609 201.18 112.603 202.168C113.597 203.156 114.941 203.71 116.342 203.71Z" fill="#407BFF"/>
<path opacity="0.2" d="M116.342 203.71H155.425C156.123 203.712 156.793 203.438 157.291 202.948C157.788 202.458 158.072 201.792 158.08 201.094C158.08 200.39 157.8 199.714 157.302 199.216C156.805 198.718 156.129 198.439 155.425 198.439H111.038C111.047 199.84 111.609 201.18 112.603 202.168C113.597 203.156 114.941 203.71 116.342 203.71Z" fill="black"/>
<path d="M207.83 231.427L202.297 231.472L200.786 218.661L206.326 218.615L207.83 231.427Z" fill="#FF8B7B"/>
<path opacity="0.2" d="M200.786 218.667L201.565 225.273L207.104 225.22L206.326 218.621L200.786 218.667Z" fill="black"/>
<path d="M252.799 217.843L248.038 220.668L240.288 210.355L245.049 207.53L252.799 217.843Z" fill="#FF8B7B"/>
<path opacity="0.2" d="M240.294 210.355L244.284 215.672L249.052 212.847L245.056 207.53L240.294 210.355Z" fill="black"/>
<path d="M202.284 230.831L208.334 230.779C208.445 230.78 208.554 230.817 208.643 230.884C208.733 230.951 208.798 231.045 208.831 231.152L210.296 236.063C210.333 236.177 210.343 236.299 210.324 236.417C210.305 236.535 210.258 236.648 210.187 236.744C210.116 236.841 210.023 236.919 209.916 236.973C209.808 237.026 209.69 237.053 209.57 237.051C207.385 237.051 204.226 236.933 201.48 236.959C198.275 236.959 196.849 237.188 193.089 237.221C190.813 237.221 190.015 234.945 190.95 234.729C195.208 233.748 197.412 233.617 200.983 231.276C201.365 231.006 201.816 230.851 202.284 230.831Z" fill="#263238"/>
<path d="M200.002 231.832C200.598 231.821 201.192 231.748 201.774 231.616C201.801 231.612 201.825 231.598 201.843 231.578C201.861 231.558 201.871 231.532 201.872 231.505C201.875 231.479 201.869 231.452 201.857 231.428C201.844 231.405 201.824 231.386 201.8 231.374C201.538 231.243 199.184 230.132 198.576 230.524C198.517 230.562 198.469 230.614 198.437 230.676C198.405 230.738 198.39 230.808 198.393 230.877C198.386 231.002 198.409 231.126 198.46 231.24C198.511 231.354 198.589 231.454 198.687 231.531C199.081 231.771 199.542 231.877 200.002 231.832ZM201.31 231.44C200.113 231.649 199.204 231.603 198.837 231.309C198.773 231.257 198.722 231.191 198.688 231.116C198.654 231.041 198.638 230.96 198.641 230.877C198.639 230.852 198.643 230.827 198.653 230.804C198.664 230.781 198.68 230.761 198.7 230.746C199.06 230.524 200.374 230.995 201.323 231.427L201.31 231.44Z" fill="#407BFF"/>
<path d="M201.748 231.61C201.774 231.615 201.8 231.615 201.826 231.61C201.845 231.596 201.86 231.577 201.868 231.555C201.876 231.532 201.878 231.508 201.872 231.485C201.872 231.381 201.44 229 200.119 229.151C199.773 229.19 199.675 229.36 199.655 229.504C199.563 230.158 200.963 231.322 201.695 231.623L201.748 231.61ZM200.23 229.38C201.022 229.38 201.421 230.688 201.538 231.237C200.812 230.825 199.838 229.883 199.89 229.517C199.89 229.517 199.89 229.406 200.126 229.38H200.23Z" fill="#407BFF"/>
<path d="M210.315 78.554C209.589 82.7592 208.667 86.7944 207.549 90.8688C206.991 92.9006 206.374 94.9258 205.698 96.9445C205.345 97.9582 205.011 98.9654 204.612 99.9725C204.423 100.476 204.233 100.98 204.017 101.483L203.71 102.242L203.553 102.615L203.468 102.817L203.35 103.072C202.813 104.229 202.156 105.325 201.388 106.342C200.734 107.265 200.021 108.115 199.321 108.958C197.922 110.607 196.463 112.137 194.985 113.641C192.034 116.606 188.929 119.416 185.685 122.058L182.736 119.122C185.254 115.924 187.791 112.693 190.244 109.495C191.467 107.899 192.657 106.277 193.769 104.675C194.325 103.877 194.855 103.072 195.319 102.288C195.739 101.62 196.098 100.915 196.391 100.182C196.431 100.103 196.522 99.7894 196.594 99.5801L196.817 98.8869C196.974 98.4356 197.111 97.9647 197.248 97.4939C197.529 96.5586 197.791 95.6038 198.059 94.6555C198.569 92.7393 199.047 90.8034 199.511 88.8545C200.414 84.9305 201.283 80.9673 202.068 77.0825L210.315 78.554Z" fill="#FF8B7B"/>
<path d="M212.271 79.3192C211.937 85.6369 208.876 94.5051 208.876 94.5051L200.283 91.2351L196.745 89.9271C197.211 85.7444 198.204 81.6374 199.701 77.7039C202.317 70.9677 208.379 69.3261 211.473 74.2835C212.192 75.4018 212.382 77.2199 212.271 79.3192Z" fill="#407BFF"/>
<path opacity="0.2" d="M212.271 79.3194C211.937 85.637 208.876 94.5052 208.876 94.5052L200.283 91.2352C200.794 89.0063 201.463 86.8165 202.284 84.6822C204.429 79.0708 209.007 76.9977 212.271 79.3194Z" fill="black"/>
<path d="M184.129 118.5L178.295 119.455L178.249 125.178C178.249 125.178 183.848 124.393 186.039 121.712L184.129 118.5Z" fill="#FF8B7B"/>
<path d="M172.893 122.771L173.017 126.532L178.249 125.178L178.289 119.455L172.893 122.771Z" fill="#FF8B7B"/>
<path d="M206.13 119.455C206.13 119.455 197.817 149.716 195.613 166.655C193.324 184.273 198.726 222.055 198.726 222.055L208.726 221.839C208.726 221.839 209.478 183.325 212.748 166.001C216.332 147.12 223.16 119.089 223.16 119.089L206.13 119.455Z" fill="#263238"/>
<path d="M209.955 222.29L198.196 222.525L197.333 218.621L209.805 218.588L209.955 222.29Z" fill="#407BFF"/>
<path opacity="0.4" d="M209.955 222.29L198.196 222.525L197.333 218.621L209.805 218.588L209.955 222.29Z" fill="white"/>
<path d="M247.704 220.119L252.904 217.032C253.004 216.967 253.124 216.939 253.243 216.952C253.362 216.965 253.473 217.019 253.558 217.104L257.292 220.609C257.383 220.689 257.453 220.789 257.497 220.901C257.54 221.014 257.557 221.135 257.544 221.255C257.531 221.375 257.49 221.49 257.423 221.59C257.356 221.691 257.267 221.774 257.161 221.832C255.265 222.918 252.485 224.448 250.124 225.815C247.371 227.457 246.2 228.346 243.002 230.262C241.04 231.427 239.202 229.85 239.902 229.19C243.087 226.195 244.925 224.972 246.834 221.159C247.018 220.736 247.32 220.375 247.704 220.119Z" fill="#263238"/>
<path d="M246.226 222.12C246.734 221.808 247.211 221.449 247.652 221.048C247.671 221.028 247.684 221.004 247.69 220.977C247.696 220.951 247.694 220.923 247.685 220.897C247.675 220.871 247.656 220.85 247.633 220.836C247.609 220.821 247.581 220.815 247.554 220.819C247.26 220.819 244.689 221.041 244.343 221.708C244.306 221.768 244.286 221.837 244.286 221.908C244.286 221.978 244.306 222.047 244.343 222.107C244.4 222.213 244.481 222.304 244.58 222.374C244.679 222.443 244.792 222.488 244.912 222.506C245.38 222.525 245.842 222.389 246.226 222.12ZM247.175 221.113C246.246 221.898 245.435 222.316 244.971 222.244C244.89 222.232 244.813 222.202 244.746 222.156C244.679 222.109 244.624 222.048 244.585 221.976C244.571 221.954 244.564 221.928 244.564 221.901C244.564 221.875 244.571 221.849 244.585 221.826C244.794 221.473 246.135 221.218 247.175 221.113Z" fill="#407BFF"/>
<path d="M247.632 221.061C247.655 221.043 247.673 221.021 247.685 220.995C247.698 220.976 247.705 220.953 247.705 220.93C247.705 220.907 247.698 220.884 247.685 220.864C247.619 220.786 246.056 218.902 244.997 219.726C244.716 219.936 244.716 220.138 244.768 220.269C245.003 220.851 246.834 221.172 247.6 221.08L247.632 221.061ZM245.199 219.896C245.886 219.498 246.88 220.413 247.286 220.832C246.442 220.832 245.134 220.518 244.99 220.178C244.99 220.178 244.951 220.08 245.128 219.949L245.199 219.896Z" fill="#407BFF"/>
<path d="M216.469 119.233C216.469 119.233 216.469 148.964 217.248 166.027C218.045 183.776 240.216 214.318 240.216 214.318L248.751 209.086C248.751 209.086 233.774 180.022 234.003 162.397C234.252 143.176 235.743 118.801 235.743 118.801L216.469 119.233Z" fill="#263238"/>
<path d="M249.849 209.079L240.399 214.848L238.038 212.5L248.437 205.567L249.849 209.079Z" fill="#407BFF"/>
<path opacity="0.4" d="M249.849 209.079L240.399 214.848L238.038 212.5L248.437 205.567L249.849 209.079Z" fill="white"/>
<path d="M205.443 71.602C205.443 71.602 199.263 88.4621 206.13 119.462L235.743 118.808C235.847 114.262 232.518 92.1506 236.449 70.6406C233.152 70.0889 229.823 69.7547 226.482 69.64C222.286 69.4822 218.084 69.5717 213.899 69.9081C211.041 70.2516 208.213 70.818 205.443 71.602Z" fill="#407BFF"/>
<path d="M224.958 55.468C224.252 59.5294 223.617 66.9719 226.508 69.614C226.508 69.614 225.488 73.7669 217.967 73.9043C211.957 74.0155 213.925 69.8822 213.925 69.8822C218.418 68.705 218.229 65.3565 217.372 62.2304L224.958 55.468Z" fill="#FF8B7B"/>
<path opacity="0.2" d="M221.865 58.2212L217.378 62.2237C217.587 62.9507 217.732 63.6948 217.81 64.4473C219.53 64.166 221.865 62.2171 222.009 60.4056C222.094 59.6748 222.046 58.9344 221.865 58.2212Z" fill="black"/>
<path opacity="0.2" d="M229.844 81.3662L234.781 84.924C234.565 88.7106 234.5 92.3927 234.533 95.8458C231.505 92.7981 229.811 87.1934 229.844 81.3662Z" fill="black"/>
<path d="M225.429 67.593C225.429 67.593 224.01 71.0069 217.385 73.9107C218.45 74.3387 219.415 74.9844 220.217 75.8065C221.019 76.6286 221.64 77.6089 222.041 78.6849C222.041 78.6849 226.861 74.1069 228.15 69.5289L225.429 67.593Z" fill="white"/>
<path d="M212.434 77.4488C212.434 77.4488 214.461 74.5058 217.385 73.9107C216.358 72.655 215.299 69.8689 216.28 68.5479C215.418 68.7751 214.583 69.093 213.788 69.4962C213.788 69.4962 209.812 71.8833 212.434 77.4488Z" fill="white"/>
<path d="M211.852 43.8399C209.151 44.9974 207.81 52.2699 211.329 53.8526C214.847 55.4353 216.966 41.6555 211.852 43.8399Z" fill="#263238"/>
<path d="M225.311 49.3662C225.089 54.8598 225.239 58.084 222.532 60.9551C218.457 65.278 211.636 62.9171 210.21 57.4692C208.902 52.5642 209.504 44.3892 214.821 42.1133C215.992 41.6009 217.274 41.3963 218.546 41.519C219.818 41.6417 221.038 42.0876 222.089 42.8144C223.14 43.5412 223.988 44.5246 224.552 45.6713C225.116 46.8181 225.377 48.09 225.311 49.3662Z" fill="#FF8B7B"/>
<path d="M217.025 51.0731C217.025 51.5178 216.809 51.8841 216.515 51.8906C216.221 51.8972 215.979 51.5375 215.972 51.0927C215.966 50.648 216.188 50.2818 216.482 50.2752C216.777 50.2687 217.019 50.6219 217.025 51.0731Z" fill="#263238"/>
<path d="M211.976 51.1776C211.976 51.6223 211.76 51.9886 211.466 51.9951C211.172 52.0016 210.93 51.6485 210.923 51.1972C210.917 50.746 211.139 50.3863 211.433 50.3797C211.728 50.3732 211.97 50.7329 211.976 51.1776Z" fill="#263238"/>
<path d="M213.592 51.3674C213.087 52.7437 212.396 54.0442 211.538 55.2326C211.847 55.4437 212.199 55.5846 212.568 55.6456C212.938 55.7066 213.316 55.6862 213.677 55.5857L213.592 51.3674Z" fill="#FF5652"/>
<path d="M215.004 56.789C215.605 56.794 216.198 56.6539 216.733 56.3807C217.269 56.1074 217.73 55.7091 218.078 55.2194C218.087 55.205 218.093 55.1889 218.096 55.1719C218.099 55.155 218.098 55.1377 218.094 55.1211C218.089 55.1046 218.082 55.0891 218.071 55.0756C218.061 55.0621 218.047 55.051 218.032 55.0429C218.003 55.0254 217.969 55.0197 217.936 55.027C217.903 55.0344 217.874 55.0541 217.856 55.0821C217.526 55.5304 217.096 55.8949 216.599 56.146C216.103 56.397 215.554 56.5277 214.998 56.5274C214.981 56.5283 214.964 56.5325 214.948 56.5399C214.933 56.5472 214.919 56.5576 214.907 56.5703C214.896 56.5831 214.887 56.598 214.881 56.6142C214.875 56.6304 214.873 56.6476 214.873 56.6648C214.875 56.6983 214.89 56.7299 214.914 56.7531C214.938 56.7762 214.971 56.7891 215.004 56.789Z" fill="#263238"/>
<path d="M218.51 49.4119C218.569 49.4101 218.626 49.3894 218.673 49.3531C218.727 49.3095 218.761 49.2466 218.768 49.178C218.776 49.1094 218.756 49.0407 218.712 48.9868C218.462 48.6541 218.135 48.3862 217.759 48.2053C217.384 48.0245 216.971 47.9359 216.554 47.947C216.485 47.953 216.421 47.9864 216.376 48.0398C216.331 48.0931 216.309 48.1621 216.316 48.2315C216.322 48.3008 216.355 48.365 216.408 48.4097C216.462 48.4545 216.531 48.4762 216.6 48.4702C216.929 48.4671 217.254 48.5412 217.55 48.6866C217.845 48.832 218.102 49.0446 218.3 49.3073C218.324 49.3402 218.356 49.3668 218.392 49.385C218.429 49.4032 218.469 49.4125 218.51 49.4119Z" fill="#263238"/>
<path d="M209.727 49.4904C209.777 49.4899 209.826 49.4756 209.869 49.4491C209.911 49.4225 209.946 49.3848 209.969 49.34C210.097 49.0336 210.299 48.7629 210.555 48.551C210.811 48.3392 211.115 48.1925 211.44 48.1236C211.509 48.1123 211.571 48.0745 211.612 48.0183C211.654 47.9621 211.672 47.892 211.662 47.8227C211.65 47.7545 211.611 47.6937 211.556 47.6524C211.5 47.6112 211.43 47.5926 211.362 47.6004C210.955 47.6878 210.574 47.8711 210.252 48.135C209.931 48.3988 209.676 48.7357 209.511 49.1177C209.495 49.1484 209.486 49.182 209.484 49.2164C209.482 49.2507 209.487 49.2851 209.499 49.3175C209.511 49.3499 209.529 49.3795 209.552 49.4048C209.575 49.43 209.604 49.4502 209.635 49.4643C209.664 49.4788 209.695 49.4877 209.727 49.4904Z" fill="#263238"/>
<path d="M237.397 74.5449C238.633 76.3238 239.719 78.0634 240.837 79.8554C241.956 81.6474 242.989 83.4524 244.016 85.2836C246.098 88.9923 247.95 92.8255 249.562 96.7613C249.771 97.2518 249.954 97.775 250.144 98.2851L250.431 99.0568L250.575 99.4492L250.745 99.9855C251.162 101.395 251.313 102.87 251.19 104.335C250.931 106.894 250.078 109.358 248.698 111.529C247.497 113.467 246.068 115.254 244.441 116.852C243.663 117.637 242.839 118.363 242.001 119.063C241.154 119.763 240.269 120.418 239.353 121.025L236.691 117.833C237.273 117.179 237.934 116.368 238.522 115.616C239.111 114.864 239.686 114.06 240.229 113.275C241.287 111.767 242.196 110.159 242.943 108.474C243.594 107.072 243.935 105.547 243.944 104.001C243.921 103.411 243.797 102.829 243.578 102.281L243.054 101.117C242.852 100.685 242.669 100.247 242.446 99.8089C240.759 96.31 238.81 92.8308 236.763 89.3907C234.716 85.9507 232.571 82.4976 230.445 79.1949L237.397 74.5449Z" fill="#FF8B7B"/>
<path d="M236.449 70.6537C241.622 71.772 249.065 87.7296 249.065 87.7296L235.206 94.492C232.742 90.7224 230.693 86.6963 229.098 82.4845C226.685 75.7418 230.91 69.4503 236.449 70.6537Z" fill="#407BFF"/>
<path d="M231.524 111.692L245.448 152.822C245.989 154.437 245.87 156.199 245.116 157.726C244.363 159.252 243.036 160.419 241.426 160.971L147.832 192.703C146.216 193.246 144.451 193.125 142.924 192.369C141.397 191.613 140.231 190.282 139.683 188.668L125.766 147.551C125.498 146.772 125.387 145.947 125.439 145.125C125.514 143.847 125.968 142.621 126.742 141.601C127.517 140.582 128.577 139.817 129.788 139.402L223.402 107.67C224.614 107.262 225.92 107.225 227.154 107.563C228.387 107.901 229.492 108.598 230.328 109.567C230.863 110.189 231.27 110.912 231.524 111.692Z" fill="#407BFF"/>
<path opacity="0.8" d="M231.524 111.692L245.448 152.822C245.989 154.437 245.87 156.199 245.116 157.726C244.363 159.252 243.036 160.419 241.426 160.971L147.832 192.703C146.216 193.246 144.451 193.125 142.924 192.369C141.397 191.613 140.231 190.282 139.683 188.668L125.766 147.551C125.498 146.772 125.387 145.947 125.439 145.125C125.514 143.847 125.968 142.621 126.742 141.601C127.517 140.582 128.577 139.817 129.788 139.402L223.402 107.67C224.614 107.262 225.92 107.225 227.154 107.563C228.387 107.901 229.492 108.598 230.328 109.567C230.863 110.189 231.27 110.912 231.524 111.692Z" fill="white"/>
<path opacity="0.6" d="M230.301 109.567L191.578 144.196C189.631 145.935 187.354 147.263 184.881 148.1C182.409 148.938 179.793 149.267 177.19 149.068L125.406 145.144C125.481 143.867 125.935 142.64 126.71 141.621C127.484 140.602 128.544 139.836 129.755 139.422L223.369 107.69C224.58 107.278 225.887 107.237 227.121 107.571C228.356 107.906 229.463 108.6 230.301 109.567Z" fill="#407BFF"/>
<path d="M238.09 117.068L232.139 117.107L235.808 123.118C235.808 123.118 240.046 122.091 240.438 119.959L238.09 117.068Z" fill="#FF8B7B"/>
<path d="M228.418 120.632L231.681 125.466L235.808 123.118L232.139 117.107L228.418 120.632Z" fill="#FF8B7B"/>
<path d="M229.059 44.9646C230.367 48.5485 226.41 56.8477 224.108 56.6908C221.806 56.5338 221.178 47.9076 222.486 45.7624C221.243 46.338 209.406 46.3576 209.465 45.1084C209.766 40.5697 217.816 38.9216 226.645 41.1844C228.941 41.0733 229.798 41.7011 229.059 44.9646Z" fill="#263238"/>
<path d="M227.914 55.3501C227.564 55.9384 227.1 56.4512 226.55 56.8588C226 57.2663 225.374 57.5605 224.71 57.7241C222.931 58.1557 222.094 56.5534 222.656 54.9054C223.147 53.4208 224.664 51.413 226.43 51.7138C228.195 52.0147 228.778 53.8917 227.914 55.3501Z" fill="#FF8B7B"/>
<path d="M202.408 42.826L229.575 45.9652C229.712 45.98 229.849 45.9402 229.957 45.8545C230.065 45.7688 230.135 45.6441 230.151 45.5074C230.166 45.3716 230.127 45.2353 230.043 45.1277C229.958 45.0202 229.835 44.9499 229.7 44.9319L202.526 41.7992C202.39 41.7844 202.254 41.8233 202.146 41.9076C202.039 41.992 201.968 42.115 201.95 42.2505C201.936 42.3874 201.975 42.5245 202.061 42.6323C202.147 42.74 202.272 42.8096 202.408 42.826Z" fill="#407BFF"/>
<path d="M230.151 45.4813L230.622 41.4265C230.617 40.9831 230.446 40.5577 230.144 40.2334C229.841 39.9092 229.429 39.7096 228.987 39.6738L212.303 36.5215C211.067 36.2861 209.929 36.9793 209.936 37.9603V43.1531L230.151 45.4813Z" fill="#407BFF"/>
<path d="M211.492 41.9562L218.556 42.7737L218.798 40.7136L211.499 39.8765L211.492 41.9562Z" fill="white"/>
</g>
<defs>
<clipPath id="clip0">
<rect width="277" height="245" fill="white"/>
</clipPath>
</defs>
</svg>
